<svg width="62" height="60" viewBox="0 0 62 60" fill="none" xmlns="http://www.w3.org/2000/svg">
<rect y="18" width="62" height="25" rx="12.5" fill="#142850"/>
<path d="M10.7559 36V33.8555L14.8516 29.6279C15.3379 29.0947 15.7012 28.6113 15.9414 28.1777C16.1875 27.7441 16.3105 27.3809 16.3105 27.0879C16.3105 26.5664 16.1992 26.1826 15.9766 25.9365C15.7598 25.6904 15.4375 25.5674 15.0098 25.5674C14.7461 25.5674 14.5117 25.6494 14.3066 25.8135C14.1016 25.9775 13.9404 26.2002 13.8232 26.4814C13.7061 26.7627 13.6475 27.0732 13.6475 27.4131H10.4834C10.4834 26.6162 10.6797 25.8838 11.0723 25.2158C11.4707 24.542 12.0215 24.0088 12.7246 23.6162C13.4277 23.2178 14.2188 23.0186 15.0977 23.0186C16.5332 23.0186 17.6201 23.3467 18.3584 24.0029C19.0967 24.6533 19.4658 25.5908 19.4658 26.8154C19.4658 27.4131 19.3457 27.9814 19.1055 28.5205C18.8652 29.0537 18.5283 29.584 18.0947 30.1113C17.6611 30.6387 17.0605 31.292 16.293 32.0713L14.9219 33.4512H19.7559V36H10.7559ZM30.2412 30.8496C30.2412 31.9922 30.0508 32.9648 29.6699 33.7676C29.2949 34.5645 28.7676 35.165 28.0879 35.5693C27.4082 35.9736 26.623 36.1758 25.7324 36.1758C24.8301 36.1758 24.0361 35.9736 23.3506 35.5693C22.6709 35.165 22.1406 34.5645 21.7598 33.7676C21.3848 32.9707 21.1973 31.998 21.1973 30.8496V28.3799C21.1973 27.2314 21.3848 26.2559 21.7598 25.4531C22.1406 24.6504 22.668 24.0469 23.3418 23.6426C24.0215 23.2324 24.8125 23.0273 25.7148 23.0273C26.6055 23.0273 27.3906 23.2324 28.0703 23.6426C28.7559 24.0527 29.2891 24.6592 29.6699 25.4619C30.0508 26.2646 30.2412 27.2373 30.2412 28.3799V30.8496ZM27.0859 27.9844C27.0859 27.1289 26.9658 26.5137 26.7256 26.1387C26.4912 25.7637 26.1543 25.5762 25.7148 25.5762C25.2637 25.5762 24.9209 25.7637 24.6865 26.1387C24.458 26.5078 24.3438 27.123 24.3438 27.9844V31.2275C24.3438 32.1064 24.4609 32.7275 24.6953 33.0908C24.9297 33.4482 25.2754 33.627 25.7324 33.627C26.1719 33.627 26.5059 33.4453 26.7344 33.082C26.9688 32.7188 27.0859 32.1006 27.0859 31.2275V27.9844ZM31.709 36V33.8555L35.8047 29.6279C36.291 29.0947 36.6543 28.6113 36.8945 28.1777C37.1406 27.7441 37.2637 27.3809 37.2637 27.0879C37.2637 26.5664 37.1523 26.1826 36.9297 25.9365C36.7129 25.6904 36.3906 25.5674 35.9629 25.5674C35.6992 25.5674 35.4648 25.6494 35.2598 25.8135C35.0547 25.9775 34.8936 26.2002 34.7764 26.4814C34.6592 26.7627 34.6006 27.0732 34.6006 27.4131H31.4365C31.4365 26.6162 31.6328 25.8838 32.0254 25.2158C32.4238 24.542 32.9746 24.0088 33.6777 23.6162C34.3809 23.2178 35.1719 23.0186 36.0508 23.0186C37.4863 23.0186 38.5732 23.3467 39.3115 24.0029C40.0498 24.6533 40.4189 25.5908 40.4189 26.8154C40.4189 27.4131 40.2988 27.9814 40.0586 28.5205C39.8184 29.0537 39.4814 29.584 39.0479 30.1113C38.6143 30.6387 38.0137 31.292 37.2461 32.0713L35.875 33.4512H40.709V36H31.709ZM51.1943 30.8496C51.1943 31.9922 51.0039 32.9648 50.623 33.7676C50.248 34.5645 49.7207 35.165 49.041 35.5693C48.3613 35.9736 47.5762 36.1758 46.6855 36.1758C45.7832 36.1758 44.9893 35.9736 44.3037 35.5693C43.624 35.165 43.0938 34.5645 42.7129 33.7676C42.3379 32.9707 42.1504 31.998 42.1504 30.8496V28.3799C42.1504 27.2314 42.3379 26.2559 42.7129 25.4531C43.0938 24.6504 43.6211 24.0469 44.2949 23.6426C44.9746 23.2324 45.7656 23.0273 46.668 23.0273C47.5586 23.0273 48.3438 23.2324 49.0234 23.6426C49.709 24.0527 50.2422 24.6592 50.623 25.4619C51.0039 26.2646 51.1943 27.2373 51.1943 28.3799V30.8496ZM48.0391 27.9844C48.0391 27.1289 47.9189 26.5137 47.6787 26.1387C47.4443 25.7637 47.1074 25.5762 46.668 25.5762C46.2168 25.5762 45.874 25.7637 45.6396 26.1387C45.4111 26.5078 45.2969 27.123 45.2969 27.9844V31.2275C45.2969 32.1064 45.4141 32.7275 45.6484 33.0908C45.8828 33.4482 46.2285 33.627 46.6855 33.627C47.125 33.627 47.459 33.4453 47.6875 33.082C47.9219 32.7188 48.0391 32.1006 48.0391 31.2275V27.9844Z" fill="white"/>
</svg>
