<svg width="62" height="60" viewBox="0 0 62 60" fill="none" xmlns="http://www.w3.org/2000/svg">
<rect y="18" width="62" height="25" rx="12.5" fill="#142850"/>
<path d="M10.7559 36V33.8555L14.8516 29.6279C15.3379 29.0947 15.7012 28.6113 15.9414 28.1777C16.1875 27.7441 16.3105 27.3809 16.3105 27.0879C16.3105 26.5664 16.1992 26.1826 15.9766 25.9365C15.7598 25.6904 15.4375 25.5674 15.0098 25.5674C14.7461 25.5674 14.5117 25.6494 14.3066 25.8135C14.1016 25.9775 13.9404 26.2002 13.8232 26.4814C13.7061 26.7627 13.6475 27.0732 13.6475 27.4131H10.4834C10.4834 26.6162 10.6797 25.8838 11.0723 25.2158C11.4707 24.542 12.0215 24.0088 12.7246 23.6162C13.4277 23.2178 14.2188 23.0186 15.0977 23.0186C16.5332 23.0186 17.6201 23.3467 18.3584 24.0029C19.0967 24.6533 19.4658 25.5908 19.4658 26.8154C19.4658 27.4131 19.3457 27.9814 19.1055 28.5205C18.8652 29.0537 18.5283 29.584 18.0947 30.1113C17.6611 30.6387 17.0605 31.292 16.293 32.0713L14.9219 33.4512H19.7559V36H10.7559ZM30.2412 30.8496C30.2412 31.9922 30.0508 32.9648 29.6699 33.7676C29.2949 34.5645 28.7676 35.165 28.0879 35.5693C27.4082 35.9736 26.623 36.1758 25.7324 36.1758C24.8301 36.1758 24.0361 35.9736 23.3506 35.5693C22.6709 35.165 22.1406 34.5645 21.7598 33.7676C21.3848 32.9707 21.1973 31.998 21.1973 30.8496V28.3799C21.1973 27.2314 21.3848 26.2559 21.7598 25.4531C22.1406 24.6504 22.668 24.0469 23.3418 23.6426C24.0215 23.2324 24.8125 23.0273 25.7148 23.0273C26.6055 23.0273 27.3906 23.2324 28.0703 23.6426C28.7559 24.0527 29.2891 24.6592 29.6699 25.4619C30.0508 26.2646 30.2412 27.2373 30.2412 28.3799V30.8496ZM27.0859 27.9844C27.0859 27.1289 26.9658 26.5137 26.7256 26.1387C26.4912 25.7637 26.1543 25.5762 25.7148 25.5762C25.2637 25.5762 24.9209 25.7637 24.6865 26.1387C24.458 26.5078 24.3438 27.123 24.3438 27.9844V31.2275C24.3438 32.1064 24.4609 32.7275 24.6953 33.0908C24.9297 33.4482 25.2754 33.627 25.7324 33.627C26.1719 33.627 26.5059 33.4453 26.7344 33.082C26.9688 32.7188 27.0859 32.1006 27.0859 31.2275V27.9844ZM35.2861 36V26.9209L32.4121 27.6768V25.2158L38.1602 23.2207H38.4326V36H35.2861ZM49.2607 29.4082C49.8701 29.707 50.3418 30.1172 50.6758 30.6387C51.0156 31.1602 51.1855 31.7666 51.1855 32.458C51.1855 33.2666 50.9951 33.9492 50.6143 34.5059C50.2334 35.0625 49.7031 35.4814 49.0234 35.7627C48.3496 36.0381 47.5703 36.1758 46.6855 36.1758C45.8008 36.1758 45.0156 36.0381 44.3301 35.7627C43.6445 35.4814 43.1055 35.0625 42.7129 34.5059C42.3262 33.9492 42.1328 33.2666 42.1328 32.458C42.1328 31.7666 42.3057 31.1602 42.6514 30.6387C42.9971 30.1172 43.4775 29.7041 44.0928 29.3994C43.5596 29.1064 43.1436 28.7256 42.8447 28.2568C42.5518 27.7822 42.4053 27.2461 42.4053 26.6484C42.4053 25.875 42.584 25.2158 42.9414 24.6709C43.3047 24.126 43.8057 23.7158 44.4443 23.4404C45.0889 23.1592 45.8271 23.0186 46.6592 23.0186C47.5029 23.0186 48.2441 23.1592 48.8828 23.4404C49.5273 23.7158 50.0283 24.126 50.3857 24.6709C50.749 25.2158 50.9307 25.875 50.9307 26.6484C50.9307 27.252 50.7842 27.791 50.4912 28.2656C50.2041 28.7344 49.7939 29.1152 49.2607 29.4082ZM46.6592 25.5674C46.3018 25.5674 46.0293 25.6787 45.8418 25.9014C45.6602 26.1182 45.5693 26.4316 45.5693 26.8418C45.5693 27.2578 45.6631 27.5859 45.8506 27.8262C46.0381 28.0664 46.3164 28.1865 46.6855 28.1865C47.0488 28.1865 47.3213 28.0664 47.5029 27.8262C47.6904 27.5859 47.7842 27.2578 47.7842 26.8418C47.7842 26.4316 47.6904 26.1182 47.5029 25.9014C47.3154 25.6787 47.0342 25.5674 46.6592 25.5674ZM46.6855 33.627C47.084 33.627 47.4062 33.4951 47.6523 33.2314C47.8984 32.9678 48.0215 32.6133 48.0215 32.168C48.0215 31.7051 47.8984 31.3506 47.6523 31.1045C47.4121 30.8584 47.084 30.7354 46.668 30.7354C46.252 30.7354 45.918 30.8584 45.666 31.1045C45.4199 31.3506 45.2969 31.7051 45.2969 32.168C45.2969 32.6133 45.4258 32.9678 45.6836 33.2314C45.9414 33.4951 46.2754 33.627 46.6855 33.627Z" fill="white"/>
</svg>
